# xmcd
# Track frame offsets:
# 150
# 14770
# 34897
# 54384
# 83395
# 100604
# 116803
# 129756
# 143860
# 159997
# 178159
# 193012
# 207385
#
# Disc length: 2948 seconds
# Revision: 0
# Processed by: cddbd v1.5.2PL0 Copyright (c) Steve Scherf et al.
# Submitted via: VisiTrax 2.11.1.266 - For more info visit www.synapsa.com
#
DISCID=ab0b820d
DTITLE=Rocks Push - Three Good Reasons For The Blues
DYEAR=2009
DGENRE=
TTITLE0=Evil
TTITLE1=What'cha Gonna Do About It
TTITLE2=It's A Jungle Out There
TTITLE3=Rookwood Blues
TTITLE4=It's All Gonna Burn
TTITLE5=Say Mamma
TTITLE6=Hangin' Around
TTITLE7=Stranger
TTITLE8=Built For Comfort
TTITLE9=Where The Hell Was Jesus
TTITLE10=Backdoor Man
TTITLE11=Treat Me Like A Dog
TTITLE12=I Hear You Knocking
EXTD=
EXTT0=
EXTT1=
EXTT2=
EXTT3=
EXTT4=
EXTT5=
EXTT6=
EXTT7=
EXTT8=
EXTT9=
EXTT10=
EXTT11=
EXTT12=
PLAYORDER=
